<svg width="138" height="138" viewBox="0 0 138 138" fill="none" xmlns="http://www.w3.org/2000/svg">
<path d="M123.042 43.5951L125.261 39.9338C125.261 39.9338 127.214 36.6951 127.214 32.3459C127.214 21.8105 117.162 22.0886 117.162 22.0886L95.261 16.1266L83.3132 4.3125L67.592 8.59266L62.4364 7.18894L58.5185 11.0637L35.8843 17.2263C35.8843 17.2263 27.1731 16.9869 27.1731 26.1165C27.1731 29.8856 28.8679 32.6931 28.8679 32.6931L31.781 37.5015L29.2215 40.0286L16.5859 43.47C16.5859 43.47 6.53344 43.1918 6.53344 53.7273C6.55354 56.1819 7.12773 58.6003 8.21316 60.8019L4.3125 64.6595L6.35878 65.4702C6.40406 65.5802 6.42131 65.7031 6.50972 65.7915C10.4664 69.7569 10.1408 75.0828 9.57591 77.9592L7.18463 80.3548L25.2993 89.0639L50.1781 130.13C54.165 136.396 62.6283 132.476 62.6283 132.476L126.559 101.736L124.168 99.3406C123.603 96.4642 123.277 91.1382 127.234 87.1707C127.322 87.0823 127.34 86.9594 127.385 86.8516L129.431 86.0387L117.544 74.2871L131.193 67.7257L129.121 65.6492C128.631 63.1566 128.349 58.54 131.779 55.103C131.855 55.0253 131.868 54.9219 131.909 54.8248L133.688 54.1197L123.042 43.5951ZM110.784 24.5446L108.088 28.8097L101.115 21.914L110.784 24.5446ZM84.4732 15.4043L94.4847 26.1057L58.2834 39.1877L49.7339 25.9138L84.4732 15.4043ZM33.948 41.0809L58.6522 81.8577L11.5877 63.1889L33.948 41.0809ZM23.6519 45.5378L20.7517 48.4057L19.5917 46.6268L23.6519 45.5378ZM14.4943 47.7674L17.1939 51.9225L11.344 57.7056C10.8837 56.4291 10.6424 55.0841 10.6303 53.7273C10.6303 49.79 12.5839 48.2914 14.4943 47.7674ZM11.1133 79.8373L11.1457 79.7123L65.3689 103.446L11.5704 77.7997C11.62 77.5086 11.6588 77.1873 11.6998 76.8639L53.8178 94.502L11.8464 74.8456C11.8571 73.9472 11.7951 73.0494 11.661 72.1611L50.6438 88.2143L11.137 69.8625C10.8834 69.013 10.5439 68.1915 10.1236 67.4109L63.7776 90.321L64.998 92.3349C67.5143 96.2895 72.0791 95.5585 74.3798 94.8729C77.5603 96.4426 83.2614 100.074 81.8017 105.423C81.0319 108.252 79.3392 109.624 76.6288 109.624C73.8839 109.624 71.1433 108.188 71.1153 108.168L11.1133 79.8373ZM65.1188 108.211L60.8796 109.967L57.2786 104.44L65.1188 108.211ZM48.7011 119.814L32.0354 92.3026L48.5997 100.266L56.4334 112.323C53.2745 113.673 49.7447 116.754 48.7011 119.814ZM122.085 93.5424C121.951 94.4308 121.889 95.3286 121.899 96.227L79.9279 115.883L122.046 98.2452C122.087 98.5665 122.124 98.89 122.175 99.181L68.3768 124.83L122.6 101.096C122.612 101.137 122.623 101.179 122.632 101.221L62.6304 129.548C62.6024 129.567 59.8661 131.003 57.1169 131.003C54.4043 131.003 52.7138 129.629 51.9441 126.803C49.9646 119.543 61.2202 115.426 61.3884 115.364L71.2533 111.155C72.312 111.605 79.8653 114.57 83.5676 108.75L85.9028 104.899L123.624 88.7922C123.204 89.5732 122.864 90.3946 122.609 91.2439L83.1019 109.596L122.085 93.5424ZM122.158 84.5703L90.1916 97.8183L99.0624 83.1752L113.654 76.1609L122.158 84.5703ZM127.318 60.6208C127.203 61.3909 127.149 62.1688 127.156 62.9474L90.7846 79.9818L127.286 64.6961C127.322 64.9743 127.352 65.2568 127.398 65.5069L80.771 87.7335L127.764 67.165C127.776 67.2004 127.785 67.2364 127.792 67.2729L75.79 91.8261C75.7663 91.8412 73.3923 93.0875 71.0118 93.0875C68.6593 93.0875 67.1952 91.8951 66.5289 89.4456C64.8126 83.1536 74.5674 79.5872 74.7141 79.5333L128.651 56.5045C128.287 57.1817 127.993 57.894 127.773 58.6306L93.5317 74.5351L127.318 60.6208Z" fill="#0F766E"/>
</svg>
