<svg width="145" height="145" viewBox="0 0 145 145" fill="none" xmlns="http://www.w3.org/2000/svg">
<path d="M40.3825 90.3168C41.1355 90.5677 41.9305 90.6678 42.7221 90.6114C43.5137 90.555 44.2865 90.3432 44.9962 89.988C45.7059 89.6329 46.3387 89.1414 46.8585 88.5416C47.3782 87.9418 47.7747 87.2455 48.0252 86.4925L54.375 67.437V132.917C54.375 134.519 55.0116 136.056 56.1446 137.189C57.2776 138.322 58.8144 138.958 60.4167 138.958C62.0191 138.958 63.5558 138.322 64.6888 137.189C65.8218 136.056 66.4584 134.519 66.4584 132.917V96.6666H78.5417V132.917C78.5417 134.519 79.1782 136.056 80.3113 137.189C81.4443 138.322 82.981 138.958 84.5834 138.958C86.1857 138.958 87.7224 138.322 88.8555 137.189C89.9885 136.056 90.625 134.519 90.625 132.917V67.437L96.9809 86.4925C97.2316 87.2462 97.6283 87.9432 98.1484 88.5436C98.6684 89.144 99.3017 89.6361 100.012 89.9918C100.722 90.3475 101.496 90.5598 102.288 90.6166C103.08 90.6734 103.876 90.5736 104.63 90.3229C105.383 90.0722 106.08 89.6755 106.681 89.1554C107.281 88.6353 107.773 88.0021 108.129 87.2918C108.485 86.5816 108.697 85.8082 108.754 85.0159C108.811 84.2236 108.711 83.4279 108.46 82.6741L96.3767 46.4241C95.9749 45.2177 95.2026 44.1687 94.1699 43.4267C93.1372 42.6847 91.8967 42.2875 90.625 42.2916H54.375C53.1065 42.2913 51.8701 42.6903 50.841 43.432C49.8119 44.1738 49.0423 45.2206 48.6415 46.4241L36.5582 82.6741C36.3073 83.4271 36.2072 84.2221 36.2636 85.0137C36.32 85.8053 36.5318 86.5781 36.887 87.2878C37.2421 87.9975 37.7336 88.6303 38.3334 89.1501C38.9332 89.6698 39.6295 90.0663 40.3825 90.3168ZM66.4584 54.375H78.5417V84.5833H66.4584V54.375ZM57.3959 21.1458C57.3959 18.1585 58.2817 15.2382 59.9414 12.7544C61.601 10.2705 63.96 8.33457 66.7199 7.19137C69.4798 6.04817 72.5168 5.74906 75.4467 6.33186C78.3766 6.91465 81.0679 8.35319 83.1803 10.4655C85.2926 12.5779 86.7312 15.2692 87.314 18.1991C87.8968 21.129 87.5977 24.166 86.4545 26.9259C85.3113 29.6858 83.3753 32.0448 80.8915 33.7045C78.4076 35.3641 75.4874 36.25 72.5 36.25C68.4942 36.25 64.6524 34.6586 61.8198 31.8261C58.9872 28.9935 57.3959 25.1517 57.3959 21.1458Z" fill="#0F766E"/>
</svg>
