<!DOCTYPE svg PUBLIC "-//W3C//DTD SVG 1.1//EN" "http://www.w3.org/Graphics/SVG/1.1/DTD/svg11.dtd">
<!-- Uploaded to: SVG Repo, www.svgrepo.com, Transformed by: SVG Repo Mixer Tools -->
<svg width="800px" height="800px" viewBox="0 0 48 48" xmlns="http://www.w3.org/2000/svg" fill="#0F766E" stroke="#0F766E">
<g id="SVGRepo_bgCarrier" stroke-width="0"/>
<g id="SVGRepo_tracerCarrier" stroke-linecap="round" stroke-linejoin="round"/>
<g id="SVGRepo_iconCarrier">
<defs>
<style>.a{fill:none;stroke:#0F766E;stroke-linecap:round;stroke-linejoin:round;}</style>
</defs>
<path class="a" d="M24.0005,4.5S22.69,7.2761,17.9749,8.6026s-5.495,1.9392-5.495,5.7281"/>
<path class="a" d="M10.4824,14.5759H24.0005"/>
<path class="a" d="M24.0005,35.9994H11.0653"/>
<path class="a" d="M24.0005,43.5s-2.6174-2.8052-5.63-2.834-6.0423-1.5508-6.0423-4.623"/>
<path class="a" d="M14.0229,36.0574V14.7752"/>
<path class="a" d="M20.5707,14.7277v21.27"/>
<path class="a" d="M24.0005,4.5s1.3109,2.7761,6.0257,4.1026,5.4949,1.9392,5.4949,5.7281"/>
<path class="a" d="M37.5176,14.5759H24"/>
<path class="a" d="M24.0005,35.9994H36.9358"/>
<path class="a" d="M24.0005,43.5s2.6174-2.8052,5.63-2.834,6.0423-1.5508,6.0423-4.623"/>
<path class="a" d="M33.9781,36.0574V14.7752"/>
<path class="a" d="M27.4293,14.7277v21.27"/>
</g>
</svg>